<svg xmlns="http://www.w3.org/2000/svg" xmlns:xlink="http://www.w3.org/1999/xlink" width="864" zoomAndPan="magnify" viewBox="0 0 648 266.999984" height="356" preserveAspectRatio="xMidYMid meet" version="1.2"><defs><clipPath id="01f76cc0de"><path d="M 378 9 L 505 9 L 505 137 L 378 137 Z M 378 9 "/></clipPath><clipPath id="6f3f2f85b6"><path d="M 503.378906 15.894531 C 505.613281 13.640625 504.011719 9.816406 500.839844 9.816406 L 385.003906 9.816406 C 380.460938 9.816406 378.191406 12.28125 378.191406 17.210938 C 378.191406 35.992188 378.359375 54.777344 378.6875 73.558594 C 379.023438 92.222656 379.1875 111.003906 379.1875 129.90625 C 379.1875 130.824219 379.1875 131.742188 379.1875 132.664062 C 379.183594 135.855469 383.058594 137.449219 385.304688 135.179688 L 419.660156 100.472656 C 420.328125 99.796875 420.699219 98.886719 420.695312 97.941406 C 420.664062 93.21875 420.625 88.496094 420.570312 83.769531 L 420.570312 54.363281 C 420.570312 52.957031 421.234375 52.253906 422.566406 52.253906 L 465.898438 52.253906 C 466.855469 52.253906 467.769531 51.871094 468.441406 51.191406 Z M 503.378906 15.894531 "/></clipPath><linearGradient x1="1498.013823" gradientTransform="matrix(0.297656,0,0,0.297436,0.00119129,-0.00001)" y1="32.981877" x2="1498.048018" gradientUnits="userSpaceOnUse" y2="462.12698" id="d81f8c6a17"><stop style="stop-color:#9b0909;stop-opacity:1;" offset="0"/><stop style="stop-color:#9b0909;stop-opacity:1;" offset="0.0000794833"/><stop style="stop-color:#9b0909;stop-opacity:1;" offset="0.015625"/><stop style="stop-color:#9a0909;stop-opacity:1;" offset="0.03125"/><stop style="stop-color:#9a0909;stop-opacity:1;" offset="0.046875"/><stop style="stop-color:#990909;stop-opacity:1;" offset="0.0625"/><stop style="stop-color:#980909;stop-opacity:1;" offset="0.078125"/><stop style="stop-color:#980909;stop-opacity:1;" offset="0.09375"/><stop style="stop-color:#970909;stop-opacity:1;" offset="0.109375"/><stop style="stop-color:#960909;stop-opacity:1;" offset="0.125"/><stop style="stop-color:#960909;stop-opacity:1;" offset="0.140625"/><stop style="stop-color:#950909;stop-opacity:1;" offset="0.15625"/><stop style="stop-color:#940909;stop-opacity:1;" offset="0.171875"/><stop style="stop-color:#940808;stop-opacity:1;" offset="0.1875"/><stop style="stop-color:#930808;stop-opacity:1;" offset="0.203125"/><stop style="stop-color:#920808;stop-opacity:1;" offset="0.21875"/><stop style="stop-color:#910808;stop-opacity:1;" offset="0.234375"/><stop style="stop-color:#910808;stop-opacity:1;" offset="0.25"/><stop style="stop-color:#900808;stop-opacity:1;" offset="0.265625"/><stop style="stop-color:#8f0808;stop-opacity:1;" offset="0.28125"/><stop style="stop-color:#8f0808;stop-opacity:1;" offset="0.296875"/><stop style="stop-color:#8e0808;stop-opacity:1;" offset="0.3125"/><stop style="stop-color:#8d0808;stop-opacity:1;" offset="0.328125"/><stop style="stop-color:#8d0808;stop-opacity:1;" offset="0.34375"/><stop style="stop-color:#8c0808;stop-opacity:1;" offset="0.359375"/><stop style="stop-color:#8b0808;stop-opacity:1;" offset="0.375"/><stop style="stop-color:#8b0808;stop-opacity:1;" offset="0.390625"/><stop style="stop-color:#8a0808;stop-opacity:1;" offset="0.40625"/><stop style="stop-color:#890808;stop-opacity:1;" offset="0.421875"/><stop style="stop-color:#890808;stop-opacity:1;" offset="0.4375"/><stop style="stop-color:#880808;stop-opacity:1;" offset="0.453125"/><stop style="stop-color:#870808;stop-opacity:1;" offset="0.46875"/><stop style="stop-color:#870808;stop-opacity:1;" offset="0.484375"/><stop style="stop-color:#860808;stop-opacity:1;" offset="0.5"/><stop style="stop-color:#850808;stop-opacity:1;" offset="0.515625"/><stop style="stop-color:#850808;stop-opacity:1;" offset="0.53125"/><stop style="stop-color:#840808;stop-opacity:1;" offset="0.546875"/><stop style="stop-color:#830808;stop-opacity:1;" offset="0.5625"/><stop style="stop-color:#820707;stop-opacity:1;" offset="0.578125"/><stop style="stop-color:#820707;stop-opacity:1;" offset="0.59375"/><stop style="stop-color:#810707;stop-opacity:1;" offset="0.609375"/><stop style="stop-color:#800707;stop-opacity:1;" offset="0.625"/><stop style="stop-color:#800707;stop-opacity:1;" offset="0.640625"/><stop style="stop-color:#7f0707;stop-opacity:1;" offset="0.65625"/><stop style="stop-color:#7e0707;stop-opacity:1;" offset="0.671875"/><stop style="stop-color:#7e0707;stop-opacity:1;" offset="0.6875"/><stop style="stop-color:#7d0707;stop-opacity:1;" offset="0.703125"/><stop style="stop-color:#7c0707;stop-opacity:1;" offset="0.71875"/><stop style="stop-color:#7c0707;stop-opacity:1;" offset="0.734375"/><stop style="stop-color:#7b0707;stop-opacity:1;" offset="0.75"/><stop style="stop-color:#7a0707;stop-opacity:1;" offset="0.765625"/><stop style="stop-color:#7a0707;stop-opacity:1;" offset="0.78125"/><stop style="stop-color:#790707;stop-opacity:1;" offset="0.796875"/><stop style="stop-color:#780707;stop-opacity:1;" offset="0.8125"/><stop style="stop-color:#780707;stop-opacity:1;" offset="0.828125"/><stop style="stop-color:#770707;stop-opacity:1;" offset="0.84375"/><stop style="stop-color:#760707;stop-opacity:1;" offset="0.859375"/><stop style="stop-color:#760707;stop-opacity:1;" offset="0.875"/><stop style="stop-color:#750707;stop-opacity:1;" offset="0.890625"/><stop style="stop-color:#740707;stop-opacity:1;" offset="0.90625"/><stop style="stop-color:#730707;stop-opacity:1;" offset="0.921875"/><stop style="stop-color:#730707;stop-opacity:1;" offset="0.9375"/><stop style="stop-color:#720707;stop-opacity:1;" offset="0.953125"/><stop style="stop-color:#710606;stop-opacity:1;" offset="0.96875"/><stop style="stop-color:#710606;stop-opacity:1;" offset="0.984375"/><stop style="stop-color:#700606;stop-opacity:1;" offset="0.999921"/><stop style="stop-color:#700606;stop-opacity:1;" offset="1"/></linearGradient><clipPath id="7760b69e56"><path d="M 378 115 L 513 115 L 513 257 L 378 257 Z M 378 115 "/></clipPath><clipPath id="bff23c9866"><path d="M 436.527344 115.113281 C 435.578125 115.113281 434.660156 115.496094 433.988281 116.171875 L 380.078125 170.636719 C 379.421875 171.300781 379.050781 172.195312 379.046875 173.125 C 378.960938 185.648438 378.84375 198.183594 378.6875 210.730469 C 378.578125 217.183594 378.410156 223.640625 378.191406 230.097656 C 378.082031 236.4375 378.023438 242.835938 378.023438 249.292969 C 378.023438 254.222656 380.296875 256.6875 384.839844 256.6875 L 413.425781 256.6875 C 417.632812 256.6875 419.90625 254.28125 420.238281 249.46875 C 420.457031 244.65625 420.515625 239.839844 420.40625 235.027344 C 420.40625 230.097656 420.457031 225.226562 420.570312 220.414062 C 420.683594 210.199219 420.734375 200.046875 420.734375 189.949219 L 420.734375 159.3125 C 420.734375 157.902344 421.402344 157.199219 422.730469 157.199219 C 422.730469 157.199219 461.355469 157.199219 465.898438 157.199219 C 470.292969 157.199219 498.082031 134.59375 511.53125 123.761719 C 512.375 123.085938 512.886719 122.0625 512.796875 120.984375 C 512.480469 117.230469 510.964844 115.113281 506.992188 115.113281 Z M 436.527344 115.113281 "/></clipPath><linearGradient x1="1498.042032" gradientTransform="matrix(0.297656,0,0,0.297436,0.00119129,-0.00001)" y1="387.004845" x2="1498.079961" gradientUnits="userSpaceOnUse" y2="863.01794" id="c0f2defe10"><stop style="stop-color:#770707;stop-opacity:1;" offset="0"/><stop style="stop-color:#770707;stop-opacity:1;" offset="0.0000758423"/><stop style="stop-color:#770707;stop-opacity:1;" offset="0.015625"/><stop style="stop-color:#760707;stop-opacity:1;" offset="0.03125"/><stop style="stop-color:#750707;stop-opacity:1;" offset="0.046875"/><stop style="stop-color:#750707;stop-opacity:1;" offset="0.0625"/><stop style="stop-color:#740707;stop-opacity:1;" offset="0.078125"/><stop style="stop-color:#730707;stop-opacity:1;" offset="0.09375"/><stop style="stop-color:#720707;stop-opacity:1;" offset="0.109375"/><stop style="stop-color:#720707;stop-opacity:1;" offset="0.125"/><stop style="stop-color:#710606;stop-opacity:1;" offset="0.140625"/><stop style="stop-color:#700606;stop-opacity:1;" offset="0.15625"/><stop style="stop-color:#6f0606;stop-opacity:1;" offset="0.171875"/><stop style="stop-color:#6f0606;stop-opacity:1;" offset="0.1875"/><stop style="stop-color:#6e0606;stop-opacity:1;" offset="0.203125"/><stop style="stop-color:#6d0606;stop-opacity:1;" offset="0.21875"/><stop style="stop-color:#6c0606;stop-opacity:1;" offset="0.234375"/><stop style="stop-color:#6c0606;stop-opacity:1;" offset="0.25"/><stop style="stop-color:#6b0606;stop-opacity:1;" offset="0.265625"/><stop style="stop-color:#6a0606;stop-opacity:1;" offset="0.28125"/><stop style="stop-color:#690606;stop-opacity:1;" offset="0.296875"/><stop style="stop-color:#690606;stop-opacity:1;" offset="0.3125"/><stop style="stop-color:#680606;stop-opacity:1;" offset="0.328125"/><stop style="stop-color:#670606;stop-opacity:1;" offset="0.34375"/><stop style="stop-color:#660606;stop-opacity:1;" offset="0.359375"/><stop style="stop-color:#660606;stop-opacity:1;" offset="0.375"/><stop style="stop-color:#650606;stop-opacity:1;" offset="0.390625"/><stop style="stop-color:#640606;stop-opacity:1;" offset="0.40625"/><stop style="stop-color:#630606;stop-opacity:1;" offset="0.421875"/><stop style="stop-color:#630606;stop-opacity:1;" offset="0.4375"/><stop style="stop-color:#620606;stop-opacity:1;" offset="0.453125"/><stop style="stop-color:#610606;stop-opacity:1;" offset="0.46875"/><stop style="stop-color:#600505;stop-opacity:1;" offset="0.484375"/><stop style="stop-color:#600505;stop-opacity:1;" offset="0.5"/><stop style="stop-color:#5f0505;stop-opacity:1;" offset="0.515625"/><stop style="stop-color:#5e0505;stop-opacity:1;" offset="0.53125"/><stop style="stop-color:#5d0505;stop-opacity:1;" offset="0.546875"/><stop style="stop-color:#5d0505;stop-opacity:1;" offset="0.5625"/><stop style="stop-color:#5c0505;stop-opacity:1;" offset="0.578125"/><stop style="stop-color:#5b0505;stop-opacity:1;" offset="0.59375"/><stop style="stop-color:#5a0505;stop-opacity:1;" offset="0.609375"/><stop style="stop-color:#5a0505;stop-opacity:1;" offset="0.625"/><stop style="stop-color:#590505;stop-opacity:1;" offset="0.640625"/><stop style="stop-color:#580505;stop-opacity:1;" offset="0.65625"/><stop style="stop-color:#570505;stop-opacity:1;" offset="0.671875"/><stop style="stop-color:#560505;stop-opacity:1;" offset="0.6875"/><stop style="stop-color:#560505;stop-opacity:1;" offset="0.703125"/><stop style="stop-color:#550505;stop-opacity:1;" offset="0.71875"/><stop style="stop-color:#540505;stop-opacity:1;" offset="0.734375"/><stop style="stop-color:#530505;stop-opacity:1;" offset="0.75"/><stop style="stop-color:#530505;stop-opacity:1;" offset="0.765625"/><stop style="stop-color:#520505;stop-opacity:1;" offset="0.78125"/><stop style="stop-color:#510505;stop-opacity:1;" offset="0.796875"/><stop style="stop-color:#500505;stop-opacity:1;" offset="0.8125"/><stop style="stop-color:#500505;stop-opacity:1;" offset="0.828125"/><stop style="stop-color:#4f0404;stop-opacity:1;" offset="0.84375"/><stop style="stop-color:#4e0404;stop-opacity:1;" offset="0.859375"/><stop style="stop-color:#4d0404;stop-opacity:1;" offset="0.875"/><stop style="stop-color:#4d0404;stop-opacity:1;" offset="0.890625"/><stop style="stop-color:#4c0404;stop-opacity:1;" offset="0.90625"/><stop style="stop-color:#4b0404;stop-opacity:1;" offset="0.921875"/><stop style="stop-color:#4a0404;stop-opacity:1;" offset="0.9375"/><stop style="stop-color:#4a0404;stop-opacity:1;" offset="0.953125"/><stop style="stop-color:#490404;stop-opacity:1;" offset="0.96875"/><stop style="stop-color:#480404;stop-opacity:1;" offset="0.984375"/><stop style="stop-color:#470404;stop-opacity:1;" offset="0.999924"/><stop style="stop-color:#470404;stop-opacity:1;" offset="1"/></linearGradient><clipPath id="2ddd30e44d"><path d="M 310.800781 76.304688 L 360.125 76.304688 L 360.125 125.628906 L 310.800781 125.628906 Z M 310.800781 76.304688 "/></clipPath><clipPath id="e899f2f2fd"><path d="M 335.460938 76.304688 C 321.839844 76.304688 310.800781 87.34375 310.800781 100.964844 C 310.800781 114.585938 321.839844 125.628906 335.460938 125.628906 C 349.082031 125.628906 360.125 114.585938 360.125 100.964844 C 360.125 87.34375 349.082031 76.304688 335.460938 76.304688 Z M 335.460938 76.304688 "/></clipPath><clipPath id="ab611169d3"><path d="M 0.800781 0.304688 L 50.125 0.304688 L 50.125 49.628906 L 0.800781 49.628906 Z M 0.800781 0.304688 "/></clipPath><clipPath id="f2ce40e2f8"><path d="M 25.460938 0.304688 C 11.839844 0.304688 0.800781 11.34375 0.800781 24.964844 C 0.800781 38.585938 11.839844 49.628906 25.460938 49.628906 C 39.082031 49.628906 50.125 38.585938 50.125 24.964844 C 50.125 11.34375 39.082031 0.304688 25.460938 0.304688 Z M 25.460938 0.304688 "/></clipPath><clipPath id="96d50df52b"><rect x="0" width="51" y="0" height="50"/></clipPath></defs><g id="41238b7665"><path style=" stroke:none;fill-rule:nonzero;fill:#ffffff;fill-opacity:1;" d="M 182.761719 251.628906 C 179.042969 255.945312 176.660156 250.441406 178.445312 248.65625 L 359.203125 11.234375 C 361.964844 7.605469 367.753906 9.558594 367.753906 14.117188 L 367.753906 251.929688 C 367.753906 254.554688 365.625 256.6875 362.992188 256.6875 L 332.335938 256.6875 C 329.703125 256.6875 327.570312 254.554688 327.570312 251.929688 L 327.570312 147.675781 C 328.167969 133.28125 321.96875 137.515625 318.789062 141.429688 L 262.65625 213.570312 C 260.769531 215.996094 257.113281 216.027344 255.1875 213.636719 L 237.96875 192.285156 C 236.058594 189.917969 232.453125 189.921875 230.550781 192.285156 Z M 182.761719 251.628906 "/><path style=" stroke:none;fill-rule:nonzero;fill:#ffffff;fill-opacity:1;" d="M 150.925781 21.421875 L 151.199219 243.144531 C 151.203125 246.476562 155.375 247.984375 157.511719 245.425781 L 191.148438 205.167969 C 191.597656 204.632812 191.839844 203.957031 191.839844 203.261719 L 191.839844 148.125 C 191.839844 144.003906 196.957031 142.085938 199.667969 145.191406 L 214.832031 162.558594 C 216.660156 164.648438 219.929688 164.585938 221.671875 162.425781 L 340.984375 14.625 C 341.167969 14.394531 341.332031 14.140625 341.4375 13.863281 C 342.585938 10.742188 340.046875 8.878906 337.441406 10.132812 C 337.105469 10.296875 336.824219 10.558594 336.585938 10.847656 L 242.144531 125.457031 C 240.925781 126.933594 238.648438 126.894531 237.484375 125.375 L 156.261719 19.605469 C 154.53125 17.351562 150.921875 18.578125 150.925781 21.421875 Z M 150.925781 21.421875 "/><g clip-rule="nonzero" clip-path="url(#01f76cc0de)"><g clip-rule="nonzero" clip-path="url(#6f3f2f85b6)"><path style=" stroke:none;fill-rule:nonzero;fill:url(#d81f8c6a17);" d="M 378.191406 9.816406 L 378.191406 137.449219 L 505.613281 137.449219 L 505.613281 9.816406 Z M 378.191406 9.816406 "/></g></g><g clip-rule="nonzero" clip-path="url(#7760b69e56)"><g clip-rule="nonzero" clip-path="url(#bff23c9866)"><path style=" stroke:none;fill-rule:nonzero;fill:url(#c0f2defe10);" d="M 378.023438 115.113281 L 378.023438 256.6875 L 512.886719 256.6875 L 512.886719 115.113281 Z M 378.023438 115.113281 "/></g></g><g clip-rule="nonzero" clip-path="url(#2ddd30e44d)"><g clip-rule="nonzero" clip-path="url(#e899f2f2fd)"><g transform="matrix(1,0,0,1,310,76)"><g clip-path="url(#96d50df52b)"><g clip-rule="nonzero" clip-path="url(#ab611169d3)"><g clip-rule="nonzero" clip-path="url(#f2ce40e2f8)"><path style=" stroke:none;fill-rule:nonzero;fill:#ffffff;fill-opacity:1;" d="M 0.800781 0.304688 L 50.125 0.304688 L 50.125 49.628906 L 0.800781 49.628906 Z M 0.800781 0.304688 "/></g></g></g></g></g></g></g></svg>